<!-- icon666.com - MILLIONS vector ICONS FREE --><svg clip-rule="evenodd" fill-rule="evenodd" image-rendering="optimizeQuality" shape-rendering="geometricPrecision" text-rendering="geometricPrecision" viewBox="0 0 1707 1707" xmlns="http://www.w3.org/2000/svg" xmlns:xlink="http://www.w3.org/1999/xlink"><linearGradient id="id0" gradientUnits="userSpaceOnUse" x1="853.335" x2="853.335" y1="-.004" y2="1706.66"><stop offset="0" stop-color="#66c"></stop><stop offset=".509804" stop-color="#f0f"></stop><stop offset="1" stop-color="#f60"></stop></linearGradient><g id="Layer_x0020_1"><circle cx="853" cy="853" fill="url(#id0)" r="853" style="fill: rgb(219, 81, 81);"></circle><path d="m634 1116 99-492c131 164 262 328 393 492zm342-270-88-110 478 67c14 2 27-8 29-22s-8-27-22-28l-531-75-102-127c-11-16-34-13-43 2l-380 573c-3 4-5 9-5 15 0 14 11 26 25 26h842c22 0 33-27 19-43l-69-86 162 46c13 4 27-4 31-17 4-14-4-28-17-32l-230-65-52-65 275 44c14 2 27-7 29-21s-7-27-21-29zm-307-159-86 429h-199z" fill="#fff" style="fill: rgb(255, 255, 255);"></path></g></svg>